{"title":"Stay With Me (feat. Mary J. Blige) - Singles - [Mp3-320kbps-2014","uid":10281882,"size":14344502,"categoryP":"audio","categoryS":"music","magnet":"?xt=urn:btih:2cfd3a9afd6730418840cf2cc41afafcbf5ad50a&amp;dn=Stay+With+Me+%28feat.+Mary+J.+Blige%29+-+Singles+-+%5BMp3-320kbps-2014&amp;tr=udp%3A%2F%2Ftracker.openbittorrent.com%3A80&amp;tr=udp%3A%2F%2Fopen.demonii.com%3A1337&amp;tr=udp%3A%2F%2Ftracker.coppersurfer.tk%3A6969&amp;tr=udp%3A%2F%2Fexodus.desync.com%3A6969","seeders":30,"leechers":3,"uploader":"simpsonrony","files":2,"time":1401720603,"description":"Source: https://itunes.apple.com/us/album/stay-me-feat.-mary-j.-blige/id881101678\n*******\nAudio Info: \n************\n\nFor Audio 1:\n************\nFormat                                   : MPEG Audio\nFile size                                : 6.82 MiB\nDuration                                 : 2mn 53s\nOverall bit rate mode                    : Constant\nOverall bit rate                         : 320 Kbps\nAlbum                                    : Stay With Me (feat. Mary J. Blige) - Single\nAlbum/Performer                          : Sam Smith\nPart/Position                            : 01\nPart/Total                               : 01\nTrack name                               : Stay With Me (feat. Mary J. Blige) [Darkchild Version]\nTrack name/Position                      : 01\nTrack name/Total                         : 02\nPerformer                                : Sam Smith\nComposer                                 : Sam Smith, James Napier &amp; William Phillips\nEncoded by                               : SSR\nGenre                                    : Pop\nReleased date                            : UTC 2014-06- 2T07:00:00Z\nRecorded date                            : 2014\nWriting library                          : LAME3.99.5\nCopyright                                : â„— 2014 Capitol Records Ltd.\nCover                                    : Yes\nCover type                               : Cover (front)\nCover MIME                               : image/jpeg\nComment                                  : SSR\n\nAudio\nFormat                                   : MPEG Audio\nFormat version                           : Version 1\nFormat profile                           : Layer 3\nMode                                     : Joint stereo\nDuration                                 : 2mn 54s\nBit rate mode                            : Constant\nBit rate                                 : 320 Kbps\nChannel(s)                               : 2 channels\nSampling rate                            : 44.1 KHz\nCompression mode                         : Lossy\nStream size                              : 6.63 MiB (97%)\nWriting library                          : LAME3.99.5\n\nFor Audio 2:\n************\n\nFormat                                   : MPEG Audio\nFile size                                : 6.86 MiB\nDuration                                 : 2mn 55s\nOverall bit rate mode                    : Constant\nOverall bit rate                         : 320 Kbps\nAlbum                                    : Stay With Me (feat. Mary J. Blige) - Single\nAlbum/Performer                          : Sam Smith\nPart/Position                            : 01\nPart/Total                               : 01\nTrack name                               : Stay With Me (Darkchild Version)\nTrack name/Position                      : 02\nTrack name/Total                         : 02\nPerformer                                : Sam Smith\nComposer                                 : Sam Smith, James Napier &amp; William Phillips\nEncoded by                               : SSR\nGenre                                    : Pop\nReleased date                            : UTC 2014-06- 2T07:00:00Z\nRecorded date                            : 2014\nWriting library                          : LAME3.99.5\nCopyright                                : â„— 2014 Capitol Records Ltd.\nCover                                    : Yes\nCover type                               : Cover (front)\nCover MIME                               : image/jpeg\nComment                                  : SSR\n\nAudio\nFormat                                   : MPEG Audio\nFormat version                           : Version 1\nFormat profile                           : Layer 3\nMode                                     : Joint stereo\nDuration                                 : 2mn 55s\nBit rate mode                            : Constant\nBit rate                                 : 320 Kbps\nChannel(s)                               : 2 channels\nSampling rate                            : 44.1 KHz\nCompression mode                         : Lossy\nStream size                              : 6.68 MiB (97%)\nWriting library                          : LAME3.99.5\n\n","torrent":{"xt":"urn:btih:2cfd3a9afd6730418840cf2cc41afafcbf5ad50a","amp;dn":"Stay+With+Me+%28feat.+Mary+J.+Blige%29+-+Singles+-+%5BMp3-320kbps-2014","amp;tr":["udp%3A%2F%2Ftracker.openbittorrent.com%3A80","udp%3A%2F%2Fopen.demonii.com%3A1337","udp%3A%2F%2Ftracker.coppersurfer.tk%3A6969","udp%3A%2F%2Fexodus.desync.com%3A6969"],"infoHash":"2cfd3a9afd6730418840cf2cc41afafcbf5ad50a","infoHashBuffer":{"type":"Buffer","data":[44,253,58,154,253,103,48,65,136,64,207,44,196,26,250,252,191,90,213,10]},"announce":[],"urlList":[]}}